<svg id="Layer_1" data-name="Layer 1" xmlns="http://www.w3.org/2000/svg" viewBox="0 0 232.85 295.55"><defs><style>.cls-1{fill:#7ea9b4;}.cls-2{fill:#7ea9b5;}.cls-3{fill:#91b5bf;}.cls-4{fill:#e3e7df;}</style></defs><path class="cls-1" d="M584.47,514.08l.09-.66c.55.23,1,.41,1.51.64.28.13.68.26.77.49.6,1.56,2.19,1.83,3.33,2.67a10.42,10.42,0,0,1,1.6,1.44c.15.17.07.56.09.87,1,.22,1.88.52,2,1.87.06.48,0,1.56,1.22,1.45.37,0,.62.48.38,1s-.18.73.44.62c.1,0,.25.19.37.31l.71.75-.53.35.08.18,1-.22a1.15,1.15,0,0,0-.09.27c0,.25-.11.59,0,.74.64.76.74,1.83,1.58,2.49a2.45,2.45,0,0,1,.86,1.44,28.89,28.89,0,0,0,1.2,2.83,2.13,2.13,0,0,1,.1,1.8,1.85,1.85,0,0,0,.33,2.33,2.8,2.8,0,0,1,.6,1.12,1,1,0,0,1-.47,1.47l.78.05v2l-.69.31,1,.43-1.11.21c.23.6.46,1.14.66,1.7a3.34,3.34,0,0,1,.22.88,10.65,10.65,0,0,1,0,1.13c0,.82-.46,1.09-1.37.62.31.52-.12,1.32,1,1.38a27.74,27.74,0,0,1-2.08,8.59l-1.1-1c-.07,1.18-.12,2.21-.21,3.23a1.88,1.88,0,0,1-.29.63c-.31.54-.83,1-.71,1.7a.28.28,0,0,1-.07.22c-.36.29-.93.49-1.05.85s0,.71-.54.88c-.06-.78-.11-1.49-.16-2.19l-.32,0a3.77,3.77,0,0,1-.86,3.34l.34.13.39-.37.16.06-.46,1.17c-.41-.06-.78-.23-1-.12s-.37.54-.55.82l-1.17-.45c0,.47.07.76.09,1.06.15,1.77-1.28,2.25-2.47,2.8-.59.28-1,.39-1,1.18,0,.48-.23.53-1,.7-.21,0-.47.53-.52.5-1-.55-1.37.72-2.26.63a1.42,1.42,0,0,0-1.52,1.27c0,.1-.14.19-.22.27a3.76,3.76,0,0,1-3.9.4c-.4.74-.9.9-2,.65l-1.43-.34c.43.54.65,1,.19,1.4s-.59.71-1.14.2c-.3-.27-.75-.08-1,.34a1.38,1.38,0,0,1-1.81.62,1.33,1.33,0,0,0-1.5.33,1.51,1.51,0,0,1-2-.11,5.6,5.6,0,0,0-.59-.33c-.69,1-.92,1-1.52,0-.53.52-.92,1.52-1.92.71l.23-.51-.21-.06v.58c-1.83.08-3.66.18-5.5.21a6.36,6.36,0,0,1-1.31-.24l-1.17-1-.8.76c-1.19,0-2.18,0-3.16,0a9.36,9.36,0,0,1-1.75-.26c-.88-.2-1.75-.46-2.62-.69-.15,0-.4,0-.43-.14-.38-.95-1.08-.73-1.84-.6-1.09.18-1.33,0-1.87-1.36-.49.26-1.14.27-1.24,1l-.79-.83a2.33,2.33,0,0,1-2.92-.2,9.31,9.31,0,0,1-1.38.18c-.35,0-.76.08-.89-.51-.1-.42-.43-.57-.92-.21s-1.17.3-1.67-.31a2.37,2.37,0,0,0-.77-.47c-.09,0-.3,0-.32,0-.32-1.09-1-.84-1.85-.66a1.78,1.78,0,0,1-1.33-.35c-.36-.28-1.07.38-1.1-.47l-1.49.15-.15-.88c-.18.1-.33.26-.49.27a6.68,6.68,0,0,1-3-.71,1.21,1.21,0,0,1-.48-.52c-.73-1.29-.77-1.31-2-.61-.31-.61-.56-1.25-1.45-.6-.23.17-.79,0-1.14-.12-1.19-.47-2.36-1-3.53-1.52l.05-.28c.13,0,.31,0,.36-.11a2.62,2.62,0,0,0,.18-.58c-.2-.05-.56-.18-.58-.14-.63,1.14-1.47.19-2.12.13a9.36,9.36,0,0,1-2.36-1,3.21,3.21,0,0,0-1-.26,2.51,2.51,0,0,1-2-1c-.34-.49-1.13-.56-1.25-1.27a2.75,2.75,0,0,1-.68.11c-.79-.09-1.59-.15-1.79-1.18,0-.24-.32-.43-.66-.86l-.07,1.34c-1.05-.13-1.05-.13-1.59-1.31-.18.08-.47.28-.51.23a4.75,4.75,0,0,1-.56-.83c-.78.35-1.46-.52-2.33-.68a2.91,2.91,0,0,0-.53,0l-.15-.52a14.13,14.13,0,0,1-1.62,0c-.31,0-1,0-.35-.61a6,6,0,0,0-.94-.48c-1.13-.39-2.26-.74-3.38-1.1l.12-1-2.31.35-.16-.92-1,.33c-.57.18-.76-.27-1-.59s-.5-.53-.74-.8h0l-.55-.77-.24.58L478.27,553l.67-.61a20.1,20.1,0,0,0-2.48-.84c-.78-.16-1.6-.09-2.4-.18s-1.79-.29-2.72-.44V550c-.71.89-.89.93-1.9.54-.4-.16-.82-.25-1.21-.42s-1-.32-1.24-.66-.56-.9-1.19-1c-.09,0-.15-.33-.26-.57l-1.43.82-1.39-.19.18-.35a2.35,2.35,0,0,0-.83,0,1.53,1.53,0,0,1-2-.67c-.95.78-.95.78-1.85.08-.46-.22-1.16,1-1.45-.27-.15.19-.28.51-.43.52-.61,0-1.22,0-1.83-.08a1.69,1.69,0,0,0-.94,0c-.72.3-1.15-.49-1.72-.8a3.85,3.85,0,0,1-4,.68c-.08,0-.13-.14-.2-.14-1.07.05-2.15.07-3.22.19-.44,0-.79.32-1.09-.28-.19-.4-1.8-.33-2,.15-.41,1-1.23.37-1.8.63a6.53,6.53,0,0,1-1,.18c-.52.14-1,.68-1.58.12a1,1,0,0,0-.89.13c-.88.74-2.42.26-3,1.62-.92.27-1.84.65-2.63-.21l-1.11.6.72.37c-.08.11-.11.19-.16.2-.72.15-1.53-.16-2.17.44a2.76,2.76,0,0,1-.34-.26,1.77,1.77,0,0,1-1.72,1.38l-.17.77a8.9,8.9,0,0,0-3.79,1.65,11.92,11.92,0,0,1-2.22,1.23c-.08,0-.28,0-.31,0-.66,1.28-2,1.08-3.09,1.4a2.1,2.1,0,0,1-1.8,2.29c-.77.07-1.53.22-2.34.34-.06.37-.25.79-.14,1.1.29.86-.23,1.26-.79,1.64a11.34,11.34,0,0,0-2.61,2.52c-.69.92-1.57,2-3.06,1.93v1.43l-1.28-.29c-.08.12-.36.32-.41.58-.31,1.64-1.68,4.14-2.73,4.83a1.82,1.82,0,0,1-.66.15c-.25,1.53-.42,1.73-1.61,1.78l.47.49a14.09,14.09,0,0,0-2.74,3.64c-.24-.18-.82,0-.61-.66,0-.06-.13-.25-.18-.24-1,.2-.74-.59-.7-1s-.11-1.25.59-1.59l.26.28-.14-.36c.07-.23.27-.51.2-.66a2.32,2.32,0,0,1,.37-2.46c.12-.19.17-.48.33-.57.91-.45.76-1.28.77-2,.15-.44,1.64-.11.57-1.18l1-.1-.62-.59c.17-.4.31-.77.48-1.11a.79.79,0,0,1,.35-.35c.9-.37.9-.36.31-1.07l1-2.08,1.16-.06-.58-.71c.22-.2.44-.58.75-.67a1,1,0,0,0,.82-1.15c-.09-.8.37-1.2.8-1.67a11.13,11.13,0,0,1,.8-.88c.37-.33.84-.58.29-1.13a3.28,3.28,0,0,1,.37-.63l.29,1c.12-.11.29-.2.28-.26a1.37,1.37,0,0,1,.71-1.7c.49-.3.75-1,1.07-1.53.22-.38.33-.74.95-.59.3.07.66-.24.56-.81s-.05-1.18.87-1c.14,0,.33-.21.51-.3a.62.62,0,0,1,.37-.13c.75.17.73.18.7-.59,0-.28,0-.69.13-.82a4.51,4.51,0,0,0,1.66-2.07l.69.46c.08-.06.18-.09.18-.14.2-1.17.65-1.56,1.93-1.42.38.05.79,0,.73-.24-.22-.92.58-.56,1-.86-.07-.94.56-1.43,1.42-1.68a1.16,1.16,0,0,1,.86,0c.75.51,1.27.08,1.83-.33l.4.54.15-.1c-.07-.69-.14-1.39-.2-2.08l.29-.06c.06.16.12.31.19.46a3.34,3.34,0,0,0,1.53-1.36c.19-.32,1-.28,1.54-.4l-.2,1.19,1.14-.91-1-.27c1-.42,1.92-1.16,3.1-.69a2,2,0,0,1,2.44-1.43,1.56,1.56,0,0,0,1.44-.36,6.56,6.56,0,0,1,1.7-.73l.34.72a8.83,8.83,0,0,1,2.71-.61,16.54,16.54,0,0,0,2.91-.49c1.06-.14,2.12-.19,3.12-.28.4.52.69,1.48,1.3.93s1.56-.17,2.08-.86c.07-.1.44,0,.67.06a7.08,7.08,0,0,0,1,0c.45-.07,1-.39,1.14.4a5.4,5.4,0,0,0,.91-.08l.22.85c.29-.14.64-.19.73-.37a1.3,1.3,0,0,1,1.72-.63,12.82,12.82,0,0,0,3.95.22c.33,0,.82,0,1,.26.48.63.84.6,1.3,0,0-.06.22,0,.37,0l-.47.83,1.21.3c.43-.79.95-.94,1.5-.33s.82.43,1.37.09a4.21,4.21,0,0,1,1.55-.27l-.08,1,.19.05.44-.87,1,1.49.7-.74.78,1.22c.79,0,2-.4,2.61,1a10,10,0,0,1,1.06-.47c.29-.1.7-.27.9-.15.77.49,1.66.25,2.44.49a9,9,0,0,1,1.74,1c.49.3,1,.57,1.46.91.15.11.14.43.23.73a2.05,2.05,0,0,1,2.81.26l.26,0-.16-.14c.43-.55,1-.18,1.25.05a2.46,2.46,0,0,0,2.06.46l-.14.65a23.67,23.67,0,0,1,2.57,1.06,22.53,22.53,0,0,0,3.18.91c.4.16.78.39,1.32.66.89-.56,1.59.12,2.32.76a3.74,3.74,0,0,0,1.23.91c.65.17.19.57.29.83a6.56,6.56,0,0,1,.23.87c.27-.08.64-.07.79-.25.92-1.13,1.11-1.15,2.19,0,.16.17.31.36.51.6l.42-.24c.56-.38,1.14-.32,1.33.32.3,1,1.14,1,1.89,1.22,1.3.37,2.57.79,4,1.23l-.49.63c.26,0,.53,0,.63.06a7.67,7.67,0,0,1,.66.92c.31-.37.62-.16,1,0,.84.26,1.72.42,2.55.73a5.05,5.05,0,0,1,1.14.91,4.31,4.31,0,0,1,3.45,1.32c.28.29.82.31,1.21.5s.83.33.76,1a.67.67,0,0,0,.85.82c.57-.11,1.28.38,1.73-.42,0-.09.67.06,1,.21,1,.52,2,1.12,3,1.62.58.29,1.23.46,1.09,1.28a19.17,19.17,0,0,1,2.64,0,1.13,1.13,0,0,1,.54,1.75c.62.43,1.21.61,1.7-.29.36.36,1.26-.19,1.22.9.76-.22,1.53-.38,2.11.36,1.26-.37,1.78.78,2.64,1.25.57.3,1.3.3,1.91.55,1.07.42,2.12.93,3.2,1.42l.15-.29a6.2,6.2,0,0,0,.58.49c.74-.68,1.07.08,1.53.39a1.8,1.8,0,0,1,2.6.39,1.62,1.62,0,0,0,.77.56c.84.21,1.73.28,2.57.51.37.1,1-.09,1.05.68a1.61,1.61,0,0,0,.93.09,1.81,1.81,0,0,1,1.59.25c.75.38,1.56.7,2.35-.06a1,1,0,0,1,.92.16.78.78,0,0,0,1.1.32,3.32,3.32,0,0,1,2.29-.19,5.23,5.23,0,0,0,2.14-.13c.61-.09,1.16-.15,1.45.59l.25-.54.32.72.45-.76.38.47c.47-.15.83-.79,1.52-.21.23.19.89-.14,1.35-.24l2.18-.47.32.6c.11,0,.23-.08.24-.12.12-.76.79-.76,1.27-.78a9.4,9.4,0,0,0,3.29-1,3.52,3.52,0,0,0,1.52-1c.56-.68,1.22-.55,2.11.26.12-.32.23-.6.32-.88a1.78,1.78,0,0,1,1.51-1.06l.59,0c.62,0,1.11,0,1-.94a1,1,0,0,1,.68-1.09,8,8,0,0,0,2.13-1.34c.1-.06.28-.13.28-.18-.11-1.47,1.22-1.83,2-2.56.33-.31.68-.48.69-1a1.09,1.09,0,0,1,.34-.73,4.39,4.39,0,0,0,1.76-3.51,1,1,0,0,0,1.13-.91c.07-.42.84-.65.24-1.3-.17-.19.16-1,.39-1.36s.73-.48.86-.81a3.6,3.6,0,0,0,0-1.32l.58-.19c-.1-.49-.19-.94-.28-1.4l.85-.16-.53-1.81a3.9,3.9,0,0,1-.21-.93,20.73,20.73,0,0,1,.09-3c.1-.72.2-.71,1-1-.34-.53-.39-1.23-1.14-1.53-.19-.07-.11-.84-.16-1.38l1.23-.26-.05-.24c-.39,0-.95.11-1.13-.09a5.43,5.43,0,0,1-1-1.71c-.21-.59-.21-1.26-.38-1.87a1.22,1.22,0,0,0-.55-.74,2.32,2.32,0,0,1-1.26-1.72,3.9,3.9,0,0,0-1.42-2.27c-.79-.53-.79-1.43-1.07-2.17-.17-.44-.55-.36-.58-.41-.39-.63-1.54.11-1.69-1.11-.1-.8-1.23-.93-1.89-1.39-.47-.32-1.59,0-1.37-1.19,0,0-.68-.33-.78-.23-.78.79-1.18,0-1.71-.38-1.28,1.12-2.32-.32-3.77-.26l.66-.27-.91-.81c-.81.25-1.23,1.71-2.4,1a4.43,4.43,0,0,0-.69-.54,4.55,4.55,0,0,0-.53.63c-.42.07-1.21.45-1.78.25-1.48-.52-2.6.52-3.93.61-.8.06-1.58.47-2.39.56s-1.12.75-1.79.76a1.46,1.46,0,0,0-1.41.93,3.27,3.27,0,0,1-2,1.21,4.5,4.5,0,0,0-2.94,2.36h.72c-.15,1.22-1.26.47-1.83.94.66.78.36,1.48-.19,2.22-.78-.18-1.13.42-1.52,1.09l.62.28c-.79.55.08,2.14-1.63,2.19l.36.74-.46.18.4.7-.58.25c.49.78.63,1.33-.45,1.77v3.49h-1.07c.35.87.7,1.7,1.07,2.61a11.24,11.24,0,0,1-5.21.31.72.72,0,0,1-.43-.2,2.21,2.21,0,0,0-1.76-.94c-.51,0-.67-.65-.62-1.17-.36-.14-1-.18-1.11-.47a13.21,13.21,0,0,1-.79-2.35l-.91-.09c-.19-1.2-.43-2.39-.55-3.6a26.13,26.13,0,0,1-.26-5,7.52,7.52,0,0,1,.78-3.44,2.13,2.13,0,0,0,.09-1.4,6.53,6.53,0,0,1,.57-3.36,7.55,7.55,0,0,1,1.11-1.65c-.26-.73.1-1.41,1.66-2.29-.12-1.51.94-2.22,2-2.93l.58,1.23c-.2-2.48.25-3.6,2-3.47.29-.32.52-.74.87-.89.64-.29,1.2-.41,1.43-1.32a1.64,1.64,0,0,1,1.94-.91c.32.07.48-.12.75-.32a9.15,9.15,0,0,1,2.34-.9,1.38,1.38,0,0,1,2-.77c1.08-1.27,2.06-1.5,3.92-.84.2-.88,1-.55,1.57-.68a19.15,19.15,0,0,1,3-.29,11.42,11.42,0,0,1,1.28-.15c.73,0,1.45.13,2.18.2l-.18.36.11.2,1.43-.85,1.24.71c.28-.44.6-.94,1.35-.58l.12,1.16c1.26-1.65,2.78-.82,4.18-.76.26,0,.49.57.76.9a1.84,1.84,0,0,1,2.29.17,5.3,5.3,0,0,0,1.51.9c.29.1.69-.15.81-.18l.95.93.18-.17-.17.87c.43.26.88-.66,1.19.12l0,.62.3-.12Zm-44.47,21v-1.68l-.86.41Zm9.89,9.78-.34-1.27-.31,1.27Zm-51.25,14.37h-.87l.45.81Zm49.9-12.19v.31l.59-.09c0-.07,0-.21,0-.21Zm-126.32-2.71.19.1.22-.53-.2-.08Zm126.57.8h.1v-.72h-.1ZM432,549.25h-.1V550h.1Zm169.3,1.09a1.53,1.53,0,0,0-.28-.21s-.18.08-.17.1.06.23.13.26S601.16,550.42,601.31,550.34ZM584.63,567c0,.07-.12.15-.11.17a.93.93,0,0,0,.21.19s.12-.11.12-.12Zm-176.56-2c-.13.16-.21.22-.2.25a1.64,1.64,0,0,0,.14.3Zm103.75.07.13.14a1,1,0,0,0,.24-.15s0-.13,0-.2Zm52.64,13.29v-.1h-.52v.1Zm33.89-18.75h-.18l.07.44h.11Zm-75,4.32h.1v-.52h-.1Zm-6.56-3.27c-.16-.13-.22-.21-.25-.2a1.64,1.64,0,0,0-.3.14Zm54,13.36c-.07,0-.14-.12-.16-.11a.79.79,0,0,0-.22.19s.06.1.1.15Z" transform="translate(-394.84 -366.06)"/><path class="cls-2" d="M539.35,581.27l.84.58a1.22,1.22,0,0,1,.54-.29c.24,0,.49.19.79.31a7.92,7.92,0,0,0,0,1,7.45,7.45,0,0,0,.27,1l.37-1.24a4.43,4.43,0,0,0,2-.21,2.45,2.45,0,0,1,2.4.57,1.32,1.32,0,0,0,2,.16,1.06,1.06,0,0,1,.77-.08c1.24.31,2.45.71,3.69,1a16.09,16.09,0,0,0,2.21.14c.56,0,1.17-.18,1.65.41.09.11.68-.11,1-.26.68-.33,1-.19,1.18.58l-.59.06.06.18.52-.26c.36-.09.92.23,1-.49,0-.09.32-.21.48-.21a20.53,20.53,0,0,1,2.23.2,29.15,29.15,0,0,0,3.62,0c.81,0,1.62.21,2.47.32.13-.58.57-.71,1.26-.79a15.23,15.23,0,0,0,2.65-.81l1,.64.16-.22-.48-.69,2.12-.16c.07,0,.22.17.22.16.57-.65,1.59.14,2.18-.73.16-.24,1.07-.77,1.5,0,.44,0,.83-.08,1.22-.14s.78,0,.91-.18c1.32-1.77,3.3-2.55,5.12-3.57a8.77,8.77,0,0,0,.73-.52l.08.58c.19-.13.41-.2.47-.34a3.21,3.21,0,0,1,2.51-1.75,2.36,2.36,0,0,0,.89-.46,3.68,3.68,0,0,1,2.38-1.39c.3,0,.58-.62.9-1l.37.44,1-.39-1-.32c.57-.07.74-1,1.37-.67a18.08,18.08,0,0,1,.82-1.65c0-.08.42,0,.65.06l-.23.51.21.06v-.58l.83-.08-.5-.6c.73,0,1.12-.19,1.17-1,0-.41.44-.8.67-1.21l.61.37c.11-.26.33-.53.29-.75-.16-.8.28-1.18.83-1.64.16-.14.9-.16.59-.85-.11-.24.27-.69.42-1.05.08-.17.09-.48.21-.52,1.17-.39,1-1.39,1.21-2.31a3.71,3.71,0,0,1,.89-1.82c.28-.29.55-.28.23-.73a.9.9,0,0,1,.08-.85,6,6,0,0,0,1.15-3.75l.36.63.64-1.38a1.14,1.14,0,0,1-.2-1.73,4.88,4.88,0,0,0,.37-1.47c.1-.37.24-.73.37-1.14-.8-.94-.23-2.16-.3-3.25a21.36,21.36,0,0,1,.08-3.29c.1-1.05-.15-2.13.53-3.18-1.27.07-1-1.21-1.86-1.22.32-.34.69-.66.65-.72a4.42,4.42,0,0,0-.66-.69c-.29-.79-.58-1.5-.81-2.22a8,8,0,0,1-.53-2,6.18,6.18,0,0,0-1.57-3.49l.92-.49c-.8-.35-.62-1.58-1.75-1.33a3.5,3.5,0,0,1-.72-2.49c.12-.73-.38-.54-.72-.65.45-.59-.24-.83-.43-1.16a6.25,6.25,0,0,0-1.3-1.23l.12-.65s-.08-.13-.15-.16c-.44-.17-1-.13-1.25-.7-.19-.38-.62-.63-.91-1a9.67,9.67,0,0,0-1.22-1.52c-.49-.38-.62-.68-.25-1.13-.35-.09-.83-.07-.92-.25-.5-1-1.64-1.33-2.35-2.13-.39-.44-1.08-.7-1.29-1.19-.36-.78-1.63-.61-1.58-1.67-.65-.27-1.31-.51-1.94-.79s-1.55-.59-1.8-1.6c-.08-.34-.76-.54-1.17-.8l.59-.06-.06-.18-.52.26c-1.07-.23-2.17-.38-3.21-.7-1.32-.41-2.6-.95-3.9-1.43-.84-.3-1.72-.52-2.53-.9-.31-.15-.47-.62-.75-1-.31.11-1-.44-1.19.5,0,.08-.28.19-.4.16-.78-.18-1.54-.39-2.42-.62a5,5,0,0,1-1.26.38,22.11,22.11,0,0,1-2.82,0c-.24,0-.48-.25-.73-.36a.76.76,0,0,0-.43-.12,17.92,17.92,0,0,0-2.33.35,7.38,7.38,0,0,1-2.4.25c-.91-.06-2-.39-2.91.54-.28.3-.95.26-1.46.3s-1,0-1.45,0a.76.76,0,0,0-.85.58,1,1,0,0,1-1.55.53,4.23,4.23,0,0,1-1.08.81,6.62,6.62,0,0,0-3,1.55c-.29.33-1.2-.21-1.08.78l-.83-1.34-1.06,1.12a.56.56,0,0,1,.25,1c-.32.33-1,.76-1.23.63a.82.82,0,0,0-1.38.61c-.07,1.19-1.07,1.55-1.67,2.25a2,2,0,0,1-1,.62,1.11,1.11,0,0,0-1,1.1c0,.43-.54.85-.92,1.18a18.93,18.93,0,0,1-1.64,1.12c-.07,0-.09.17-.13.26-.29.58-.47,1.18-1.35,1.25-.33,0-.6.7-.76,1.24l-1.71.45c-.61,1.49-.89,1.65-1.94,1l-.43.79-.92-2.53c.84-.61-.16-.71-.47-1l1.2-.47c-.06-1.18-.14-1.22-1.34-.84.76.36.13.88.16,1.32-.17-.3-.48-.62-.46-.9.08-.83.29-1.65.45-2.47l.51.22.06-.21H529a9.54,9.54,0,0,1,.5-1.51c.24-.45-.07-1.41,1-1.18a1.45,1.45,0,0,1,.06-.3c.16-.37.2-.3,1-.75s-.07-.63-.3-1c.74-.15.63-1.3,1.61-1-.37-1.51.1-2.21,1.86-3l.29.8a7.79,7.79,0,0,0,1-1.65c.19-.64.75-.9,1.06-1.4.41-.66,1.24-.74,2-.82a1,1,0,0,0,.67-.42,5.36,5.36,0,0,1,2.25-1.93c.85-.46,1.53-.05,2.29-.09l.43-.85.43.22,2.74-1.63.54.88c.26-.24.7-.45.75-.72.1-.66.43-.84,1-.92.81-.11,1.61-.35,2.49-.55l.21.86a1.12,1.12,0,0,0,1.35-.45,1.94,1.94,0,0,1,1.87-1.1c.85-.1,1.71-.12,2.56-.17.07.48-.47,1.13.54,1.17.06-.36.11-.71.16-1.05l1.53-.15-.34,1.4c.55-.7,1.77,0,1.72-1.38l.18.44a4.64,4.64,0,0,0,1.14.07c.46-.09.88-.44,1.33-.47s.91.32,1.33.25.81.29,1.34-.12,1.25-.1,1.87,0a10.32,10.32,0,0,0,2.66.41c.28,0,.56.45.88.62s.84,1,1.2,0c.5.28,1.19-.88,1.61.22,0,.09.4.07.61.07s.64,0,.88-.05c0,.31-.1.65,0,.69.47.24,1,.38,1.2,1a.7.7,0,0,0,.62.18,4.64,4.64,0,0,1,3.14.42,13.36,13.36,0,0,1,2.94,1.37c.09.07.27.09.3.18.44,1.26,1.73,1.2,2.65,1.72a4.5,4.5,0,0,1,.8.46.89.89,0,0,1,.2.41c.63.29,1.35.38,1.63.78a9.65,9.65,0,0,0,2.75,2.31l-.52.43c1.2-.07,1.75.28,1.93,1.38.11.7.37,1,1.05,1,.09,0,.18.1.45.26h-1a3.17,3.17,0,0,0,.71.47,2.59,2.59,0,0,1,2.07,1.61,4.53,4.53,0,0,0,1,1.22,2.55,2.55,0,0,1,.9,2.81l1.07-.67c.35.73.66,1.46,1.06,2.15.13.23.47.33.85.57l-.91.36,1.31,1.2-.37.13s0,.13,0,.15c.34.22.7.4,1,.63a13.86,13.86,0,0,1,1.53,2.71c0,.12,0,.23,0,.35s-.09.51,0,.6c1.66,1.42,1.89,1.94,2.26,4.12a15.56,15.56,0,0,0,1,2.65.47.47,0,0,1-.12.09c-.54-.16-1.1,0-.94.58s.92.25,1.49.44l-.56.46c1.74,1.58,1.79,3.8,2.16,5.9.29,1.59.16,4.52-.58,5.68l.92-.18c0,.41,0,.88,0,1.34-.08,1.2-.53,2.42.23,3.57.08.11,0,.31,0,.53l-.31-.21a3.31,3.31,0,0,0,0,2.3,18.57,18.57,0,0,1,.06,3.34,11.48,11.48,0,0,1-.19,1.52c-.15,1.08-.3,2.17-.45,3.23l-.89.29c.58.88.55,1.38-.19,1.88a1,1,0,0,0-.44,1.24,3.33,3.33,0,0,1-1,3.07c-.12.09-.3.28-.28.37.11.38,0,.46-.37.47a2.35,2.35,0,0,0-.84.36l.28.37L608,569c-.71.28-.5,1.5-1.72.9,0,.31,0,.63,0,1a9,9,0,0,1-.14,1.37.55.55,0,0,1-.5.19c-.66-.32-.63.38-.92.59.49.58-.06,1-.29,1.37-.82,1.49-1.68,3-2.53,4.44l-1-.54.34,1.12a8.15,8.15,0,0,0-3.8,3,4,4,0,0,1-.9.58A6.86,6.86,0,0,1,595,583c-.08.56-.17,1.12-.22,1.69-.07.86-.42,1-1.25.8a2.14,2.14,0,0,0-2.21.36l.81.79c-.75.51-1.41,1-2.07,1.43-.48.35-.92.92-1.54.19a.42.42,0,0,0-.35,0c-.59.21-1.4.29-1.71.72s-1.2.8-1.26,1.69l-1.45-1.07a3,3,0,0,1-1.75,1.6,16,16,0,0,1-4.63,1.15,11.23,11.23,0,0,0-2.39.55c-.81.33-1.33-.13-2-.45l-.17.82-3.1.14.13.28-4.1.32,1-.55-.1-.23c-.78.17-1.74.7-2.3.43-.78-.39-2.09.16-2.34-1.34l-.74,1.62c-.65.23-.78-1-1.5-.52-.13.08-.15.32-.27.63l-1.5-.27c-1-.18-2-.3-3-.56-.48-.13-1.18,0-1.41-.71,0,0-.3,0-.45,0a3.8,3.8,0,0,1-1,.23c-.24,0-.46-.33-.71-.37a2.35,2.35,0,0,0-1.18,0c-1,.38-1.74-.35-2.63-.36-.07,0-.11-.31-.22-.38a1.13,1.13,0,0,0-.8-.19l.56.33,0,.25-1.37-.19c-1.68-.24-3.37-.4-5-.74a6.34,6.34,0,0,1-3.67-2A.76.76,0,0,0,536,589c-.34-.37-.34-.37-.6,0H536l.28.33a2.69,2.69,0,0,1-3.07-1.23l-.9.52v-.79c-.17.07-.31.08-.35.15s0,.29-.42.27a6.34,6.34,0,0,1-3.18-1.14,10,10,0,0,0-2.61-.74,9.79,9.79,0,0,1-1.07-.4c-.29-.12-.64-.47-.83-.4-1,.4-1.74-.34-2.63-.38a.91.91,0,0,1-.63-.29c-.49-.78-1.67-.82-1.92-1.89-.07-.3-.46-.51-1-.34a7.93,7.93,0,0,1-1.77.18l-.06-.31.68-.17-.94-1.13-.34,1c-.17,0-.33.07-.4,0-1.14-.89-3-.64-3.74-2.29a1.79,1.79,0,0,1-2.36-.08,5.1,5.1,0,0,0-2.64-.81c-.78-.15-1.34-.12-1.26-1.12,0-.19-.2-.4-.38-.73l-.38.85a13.39,13.39,0,0,0-1.29-.91,8.12,8.12,0,0,0-1.49-.63c-.49-.15-.45-.09-.22-.65a2.91,2.91,0,0,0,0-1c-.91,1.51-3.46,1-4.93-1a1.79,1.79,0,0,1-2.32-1.16c-.53-.06-1.24.42-1.51-.54-.05-.16-.77-.27-1.13-.19-.81.19-.83-.31-.89-.83-.26.15-.6.47-.76.4s-.34-.5-.49-.78-.44-.82-.66-1.25c-.83.1-1.42,1-2.27.47-.19-.11-.49-.18-.55-.33-.2-.56-.55-.5-1-.42s-1,.06-.8-.74c0-.11-.11-.29-.2-.42s-.42-.52-.63-.78c-1.1.71-1.91-.07-2.73-.82l.42-.2c-.06,0-.12-.12-.15-.11-.31.06-.69.05-.89.23-.61.54-1.28.18-1.91.18-.17,0-.35-.35-.52-.54s-.49-.74-.64-.71a1.78,1.78,0,0,1-1.82-.7c-.16-.15-.57,0-.85-.09-1.83-.44-3.69-.8-5.47-1.38a35.18,35.18,0,0,1-3.76-1.72,3.62,3.62,0,0,0-2.24-.38,4.06,4.06,0,0,1-2-.25c-.84-.29-1.95.11-2.52-1-.06-.11-.49,0-.8,0v.51l-.24.1-.49-.91-.33.61-3.26-.21.38-.58a3.72,3.72,0,0,1-.89,0,2.07,2.07,0,0,0-1.67,0,2.62,2.62,0,0,1-3,.21c-1.23.72-2.58,0-3.85.32a9.62,9.62,0,0,1-5.24,0c-.38-.11-.65.08-1,.43a3.93,3.93,0,0,1-3.08,1l-.06-.64-.18,0-.3.79c-.25,0-.52-.05-.77-.1-1.55-.35-1.53-.34-2.27,1a1.81,1.81,0,0,1-1.85,1,8.23,8.23,0,0,0-1.67.19l-.24-.59-1.1,1.19a4.57,4.57,0,0,0-2.35.88,22.08,22.08,0,0,1-2.89,1.73c-.25.14-.65,0-.85,0-.7.6-1.33,1.16-2,1.68-.08.07-.28,0-.43,0-.54-.08-1,0-1,.67s-.47.61-.72.59c-.89-.08-1.73.57-2.65.08-.37-.19-1.36.82-1.44,1.39-.13.93-.34,1.12-1.28,1.16-.48,0-.55.27-.22,1-.55.24-.78.92-1.7.64-1.14-.35-1.44-.58-.88-1.63a4.06,4.06,0,0,1,.43-.57l.46.85c.14-.17.24-.23.27-.33.34-1,.24-2.29,1.78-2.54.38-.06.71-.66,1-1.06,1-1.4,2-2.81,4.1-2.36l.34-1,.74.08c.19-1,1.15-1.63,1.26-2.64,1.37-.16,1.92-2.14,3.47-1.73a9.43,9.43,0,0,1,4.53-2.39c.26-.91.88-1.19,2.54-1,.91-1.58,2.43-2.08,4.16-2.41.08.38.15.67.22,1,.83-.48,1.11-1.89,2.47-1.43a2.62,2.62,0,0,1,.8-.54c.89-.2,1.73-.77,2.72-.4a.49.49,0,0,0,.45-.06c.28-.35.41-1.08,1-.31.12-.18.2-.47.36-.52a1.77,1.77,0,0,1,.94,0c.64.17,1.26.42,1.93.65l2.28-1.21a.88.88,0,0,1,1.35.43c.12.2.44.29.76.48,0-.73.19-1.13.88-1.13.94,0,1.89-.14,2.83-.2a5.61,5.61,0,0,1,1.23,0,2,2,0,0,1,.59.34c.82,0,1.63.05,2.44.09,1.15.07,2.29.15,3.43.27.25,0,.46.27.66.4a3.9,3.9,0,0,1,1.1-.16,9.22,9.22,0,0,1,3,.53,10.07,10.07,0,0,1,2.37,1.12c.31.27.6.42.88,0,.05-.08.23-.19.28-.16.92.46,2.08,0,2.92.74.08.08.45-.19.58-.11.54.31,1,.68,1.67,1.12a20.08,20.08,0,0,1,2.87.75,20.49,20.49,0,0,0,2.93.79,44.56,44.56,0,0,1,4.88,1.67c.57.21,1.22.42.86,1.29a1.53,1.53,0,0,0,.7.31,4,4,0,0,0,1-.37c.52,1.17,1.62,1.19,2.6,1.42l-.51-.27c.54-.29.91-.29,1.52.27a2.89,2.89,0,0,0,1.75.81c.52,0,1.38.13,1.28,1.24.21-.24.38-.51.45-.49a11.27,11.27,0,0,1,2.68,1c.62.39.51.56,1.42.44a.45.45,0,0,1,.31.1c.75.61,1.7,1,2.06,2.17.35-.13.92.64,1.18-.31.61.12,1.21.27,1.82.36.78.13,1.06.61,1,1.18.53.15,1,.25,1.39.38s.89.32,1.42.52l-.48.75a7.25,7.25,0,0,1,1.77-.14,5.1,5.1,0,0,1,1.32.74l.18-.45c.78.28.75.3,1.25,1.2a1.19,1.19,0,0,0,.86.34,2.75,2.75,0,0,0,.89-.24l.71,1.38.18-.59a8.93,8.93,0,0,0,1.18.56c.48.15,1.2,0,1.44.32.47.58.9.46,1.45.35.19,0,.44.15.65.25.93.46,1.86.9,2.77,1.4a6.1,6.1,0,0,1,1,.86c.17,0,.82-1,.88.33,1.38-.81,1.81.42,2.5,1.31l.46-.89c.62.33,1.24.64,1.85,1s1.39,0,1.58.66a7.53,7.53,0,0,1,1.83.46,3.63,3.63,0,0,0,2.84.64c.21-.06.56.29.79.51a3.12,3.12,0,0,1,.37.72,1.51,1.51,0,0,1,2.39-.07l-.11,1.12c.75-1.09,1.57-.89,2.42-.39l-.39.13.24.24Zm53.37-72.78-.25-.06.15.14.14.17Zm-125.91,53c-.77-.48-.77-.48-1,.33Zm-12.79-9c.5.7.5.7,1.1.08Zm89.27,38.42,0,.41,1,.05,0-.28ZM461,553.32l-.08.22a1.74,1.74,0,0,0,.36.13,4,4,0,0,0,.66-.1Zm116.58,38.77.13-.2a4,4,0,0,0-.46-.23,2.82,2.82,0,0,0-.14.25Zm10.62-87.38v-.28l-.5.06v.17ZM480.42,559.55l.06.14.54-.21-.09-.2Zm-57,4.18a1.53,1.53,0,0,0-.21.28s.08.18.1.17a.4.4,0,0,0,.26-.13C423.64,564,423.54,563.88,423.46,563.73Zm69.46,8.48,0,.19.65-.06,0-.17Zm96.28,5v.18l.67-.07v-.11Zm-4.12,12.83.1-.24-.54-.12,0,.12Zm-14.9,2.55v.1h.52v-.1Zm-35.25-84.38,0-.16-.48.06,0,.16ZM548,590.83l-.14-.13-.21.33c.07,0,.16.07.2,0A.82.82,0,0,0,548,590.83Zm8.37-87.29-.13.14.33.21c0-.07.07-.16,0-.2A.82.82,0,0,0,556.35,503.54ZM515,581.45v-.1h-.52v.1Zm36.27-82.15h-.1v.52h.1Zm41.46,8.76s.07,0,.07-.07,0-.05-.05-.08-.06,0-.07.07S592.73,508,592.75,508.06Z" transform="translate(-394.84 -366.06)"/><path class="cls-2" d="M486.33,574.34a8.56,8.56,0,0,1,1,.23c.79.26,1.58.52,1.79,1.51.05.23.28.43.47.71a2.65,2.65,0,0,0,.51-.42.83.83,0,0,1,1.35,0c1.08,1,2.6,1.18,3.73,2.06a4.49,4.49,0,0,0,1.92.81c.25,0,.42.52.67.87a1.66,1.66,0,0,1,2.21.68.66.66,0,0,0,.46.26c.43,0,.64.68,1.23.34.2-.11.2.9.85.51l.61,1,.12-.73.46.66a3.69,3.69,0,0,1,4,1.88,7.35,7.35,0,0,1,1.75.43c.41.21.68.69,1,1l.44-.76c1.08.54,2.17,1.07,3.25,1.63.19.09.29.35.47.46a4.32,4.32,0,0,0,2.18.76c1.55,0,2.78,1,4,1.86.14.1.14.41.19.6a7.84,7.84,0,0,1,2.85.38c1.09.59,2.59.16,3.44,1.37,1.07-.46,1.25-.38,2.7,1.42.21-.16.42-.43.65-.47a3.84,3.84,0,0,1,1.1.24l-1.28.37v.29c.58.25,1,.95,1.84.08.26-.29,1,0,1.3.62,1-.68,2-.06,3,.17.29.07.51.41.85.7.73-.76,1.49.25,2.28.41a1.88,1.88,0,0,1,1.63,1.82,2.47,2.47,0,0,1,1.38-.18,15.26,15.26,0,0,0,2.14,0,5.64,5.64,0,0,1,2.18.57c.53.28.91.61,1.49.16.1-.08.37,0,.52,0,.79.39,1.87.25,2.3,1.32.06.17.49.26.75.27.75,0,1.51-.09,2.26-.05a2,2,0,0,1,.94.44,3.84,3.84,0,0,0,4.06.34A.69.69,0,0,1,560,601c.69.41,1.61,0,2.24.62a.62.62,0,0,0,.58,0c.46-.24.74,0,1.1.23a1.15,1.15,0,0,0,1,.08c1.46-.62,3-.19,4.47-.23.31,0,.63.52,1,.83.18-.12.41-.4.6-.37a15.3,15.3,0,0,0,2.7-.31c2-.07,4.1-.28,6.15-.44a7.75,7.75,0,0,1,2.64-.18c1.47.45,2.51-.91,4-.52l.8.83c0-.5,0-.82,0-1.14.29-.39,1-.28,1.72.38l-.15-.89c.48.16.83-.66,1.38-.07.46-1,1.78-.28,2.35-1.12a.53.53,0,0,1,.3-.17,13.77,13.77,0,0,0,3.69-1.16c.08,0,.21.07.32.1,1.23.28,1.23.28,1.64-.8.67-.27,1.47-.36,1.85-.8.61-.73,1-.56,1.56.06.53-.72.94-1.51,1.86-1.72.37-.09.66-.57,1.12-.15.05,0,.38-.1.48-.24a4.63,4.63,0,0,1,3.24-1.79,1.53,1.53,0,0,0,.53-.22,2.27,2.27,0,0,1,1.45-.65c.47,0,1-.48,1.43-.77.86-.55,1.62-1.29,2.77-1.27.4,0,.82-.44,1.2-.4a10.33,10.33,0,0,1,2.32.56c.78.26.77.31,1.44-.28.6.58,1.42,1,1.34,2.07,0,.18.28.37.39.57.24.43.44.88.66,1.33l-2.11.88,1.56.29c-.53.55-.9,1-1.31,1.37a1.3,1.3,0,0,0-.59,1.32c0,.22-.19.57-.38.78q-1.2,1.32-2.46,2.58a6.93,6.93,0,0,1-.89.6l-2.69,2-.86-.76-.21.17c.11.31.22.63.34,1l-1.21.1-.18.67a11.68,11.68,0,0,0-2.4,1.19c-1.77,1.48-3.92,2.06-6,2.78a4.77,4.77,0,0,1-1.42,0c0,.6-.37.71-.94.32-.08.71-.68,1.25-1.08.92a.79.79,0,0,0-1.29.27.87.87,0,0,1-1.15.36c-.66-.21-.62.21-.69.56a33.85,33.85,0,0,0-5.29.8l.34-.53-2.43.24c0,1.54-1.49,1.19-2.43,1.62-.24.11-.7-.26-1.2-.46,0,0-.1.16-.14.14-.66-.32-1,.51-1.57.43-.29,0-.63.41-.9-.13-.05-.09-.73,0-.79.1-.33.81-.76.53-1.28.23a4.82,4.82,0,0,0-.94-.34c-.18.28-.29.68-.54.79a2.61,2.61,0,0,1-1,0v-.61c-.11,0-.22,0-.24,0-.67,1-1.53.75-2.42.43-.53-.19-1.11-.66-1.5.52l-.13-.35,0-.65a4.33,4.33,0,0,0-1.35.51,2.77,2.77,0,0,1-1.72.16c-1.38-.11-2.75-.28-4.12-.47a19.06,19.06,0,0,1-2.93-.49,7,7,0,0,1-2.72-.93s-.18.1-.28.1a5.07,5.07,0,0,1-1.83,0,5.68,5.68,0,0,0-2.52-.56c-.12,0-.25-.15-.38-.23l.66-.26-.22-.27-.42.55a3.93,3.93,0,0,0-.75-.13c-.73,0-.73,0-1-.57-.37.13-.9.47-1.05.34-.41-.34-.8-.14-1.17-.22-.71-.16-1.7-.08-1.67-1.49l-.27.78-.9-1.4-.68.86a7,7,0,0,1-1.26-.4c-.35-.17-.89-.08-1-.72,0-.17-.61-.41-.9-.36a4.8,4.8,0,0,1-3.57-.84,14.78,14.78,0,0,0-2.52-.91c-.26-.09-.51-.21-.68-.28-.05-.44,0-.88-.17-1.11s-.73-.24-1.19-.08a4.78,4.78,0,0,1-1.45.1l.55-1.08-.21-.16a7.28,7.28,0,0,0-1,.35,1.65,1.65,0,0,1-2.35-.42.92.92,0,0,1,0-.63c.16-.53.11-.69-.36-.75s-1.08.12-1.27-.11-.77-.2-.81-.27c-.33-.61-.57.49-.91,0-.12-.17-.59-.06-.88-.15-.44-.13-.86-.33-1.29-.49l.26-.48c-1.16.57-1.86-.33-2.71-.68A23.36,23.36,0,0,1,521.8,598c-.17-.09-.23-.37-.35-.57-1.11.22-1.11.22-3.39-2l-1,.44-1-.57a6,6,0,0,1-2-1.33c-.26-.33-.91-.39-1.41-.47s-1.31.19-1.27-.85c0-.11-.5-.29-.79-.34-.56-.08-1.21.18-1.59-.53-.06-.11-.48,0-.72,0-.42-1.43-.73-1.61-1.71-.94l-.18-1c-.89.55-1.23-.49-1.89-.69s-1.37-.52-2-.77l.44-1c-1.09-.28-.64.57-.89,1a7.8,7.8,0,0,1-2.79-1.82l.39-.13-.24-.24-.13.39-2-1.33c-1.48.28-2.63-.75-3.72-1.77a1.64,1.64,0,0,0-1-.52c-1-.14-2-.22-2.5-1.23,0-.08-.34,0-.48-.05s-.54-.31-.52-.36c.34-.87-.69-.45-.8-.87-.53.37-.56-.62-1.15-.4a2.15,2.15,0,0,1-1.37-.24c-.77-.31-1.54-.67-1.72-1.61-.59.1-1.25.62-1.43-.39l-.43.08c-.27-.38-.4-.73-.64-.86a2.27,2.27,0,0,0-1-.19,8.42,8.42,0,0,1-4.65-1.51c-1.17-.75-2.51-.88-3.67-1.7l-.08-.73c-.54-.16-1-.32-1.55-.43-.05,0-.13.29-.25.35-.69.34-1.07-.16-1.44-.68l-.68.51c.18-1-.35-1-1-1a1.71,1.71,0,0,1-.9-.2c-.49-.35-.83-.82-1.61-.66-.45.1-1-.25-.85-1h-.95l.25.55c-1.37-.44-2.81-.18-3.89-1.23-.12-.11-.38-.06-.58-.11-.85-.17-.85-.18-1.08-1.14l-.23.86c-.12,0-.18,0-.19,0-.72-1.21-1.93-1.06-3.07-1.18a4.59,4.59,0,0,1-1.39-.68c-.47.75-.47.75-1.65.6v-1.15c-.44.24-.81.41-1.15.63a1.63,1.63,0,0,1-2.1,0,17,17,0,0,0-2.15-1l-.37,1.14a4.29,4.29,0,0,0-.38-.44c-.8-.77-.79-.76-1.68-.14a1.48,1.48,0,0,1-.74.29c-1,0-2.08,0-3.12,0-.21,0-.4-.17-.62-.23-.58-.16-1.07-.9-1.81-.26-.13.11-.47,0-.69,0-.59-.18-1.18-.4-1.76-.61.34-.84.51-.81,2.27.37v-1.05a8.63,8.63,0,0,0,1.08-.32,12.91,12.91,0,0,1,6-.71c.75,0,1.53-.41,2.22.21a6.55,6.55,0,0,1,5.19,0,.48.48,0,0,0,.35-.05c1.35-1,2.77,0,4.15-.16.07,0,.19,0,.21.1.47,1.28.85.32,1.36-.16l3.44,1.72c.09-.09.38-.48.45-.44.84.43,1.93.14,2.65,1a1.05,1.05,0,0,0,.88.17,7.35,7.35,0,0,1,3,.25,10,10,0,0,1,4.34,1.39c.28.21.69.94,1.26.23.06-.08.5.15.75.25l2.73,1.1a8.65,8.65,0,0,1,2.77,1.23,2.37,2.37,0,0,0,1.9.89c.39,0,.1,1.14.9.41.06.49.11.84.2,1.48l.81-.85.42,1.51.19,0,.21-1c1-.47,1.4.5,2,.94l-.28.26Zm-46.65-9.48c-.95,0-.95,0-.81.71ZM455.59,567l.69.28v-.56Zm139.7,42.86-.56-.21a1.31,1.31,0,0,0-.09.28s.12.1.18.09A2.49,2.49,0,0,0,595.29,609.86ZM620.08,591l.24.11.12-.55-.12,0Zm-81.52,5.29-.11-.19-.49.27.1.18Zm24.07,5.86c-.16-.13-.22-.21-.25-.2a1.64,1.64,0,0,0-.3.14Zm12.17.16c-.07,0-.15-.12-.17-.11a.93.93,0,0,0-.19.21s.11.12.12.11A2.25,2.25,0,0,0,574.8,602.31Zm33,2-.2.13.23.22a.4.4,0,0,0,.12-.11C607.92,604.49,607.86,604.41,607.81,604.33Z" transform="translate(-394.84 -366.06)"/><path class="cls-2" d="M616.63,564a2.13,2.13,0,0,1,1.77-2,1.78,1.78,0,0,1-.22-2c.22-.53-.22-1.31.52-1.46-.18-.28-.46-.53-.42-.7.25-1.09.57-2.17.88-3.24,0-.1.17-.17.25-.25.83-.75.77-1-.42-1.44.14-1.73.23-3.49.48-5.23.06-.48-.4-.71-.21-1.19a3.52,3.52,0,0,0,.42-1.9,3.5,3.5,0,0,1-.3-1.71c.19-.86.45-1.23,1.27-1.21a5,5,0,0,0,1.09,0c.86-.17,1.44,0,1.69.93a1,1,0,0,0,.69.59,1.91,1.91,0,0,1,1.76,2.1c0,.52.28,1,1.08.82-.22.73.72,1.5-.43,2a4.43,4.43,0,0,1,1,4.13,7.6,7.6,0,0,0,.15,2.16c-.87.14-1.13.42-.83,1.09a4.56,4.56,0,0,1,.09,3.13,2,2,0,0,1-.26.63c-.48.7-.48.7,0,1.49-1,1.33-1,3.14-2.14,4.43l.67.5c-.45.43-.88.83-1.28,1.26a.93.93,0,0,0-.15.51,4.22,4.22,0,0,1-1.45,3.2l-.22-.44-.2.2.44.22c-.14.52-.28,1-.43,1.59h-1.54l.54.67-1,2.16c-.69,0-1.37.17-1.51,1.09l-.16-.44-.24,0a10.31,10.31,0,0,0-.28,1.45,2.69,2.69,0,0,1-1.58,2c-.22.09-.34.41-.51.62l-.5.64-.54-1-.2.09c.13.55.26,1.11.37,1.67a.43.43,0,0,1-.06.32c-.54.47-1.13,1.35-1.61,1.29-.87-.11-1,.55-1.46.83-.3.17-.59.36-.88.55l0,0c-.44.45-.44.45-.11.93-.38.42-.75.77-1.42.57-.13,0-.43.31-.58.53s-.2.67-.42.83c-1.07.73-2.17,1.43-3.31,2.06-.25.14-.69-.08-1.09-.13a2.36,2.36,0,0,1-1.55,1.28c-.79.17-.87.51-.56,1.33l-1.47.21c-.29,0-.8,0-.83.14-.28,1.06-1.11.88-1.86.9h-.78l-.52,1.13-2.16.31v.45c-1.43-.09-2.54.77-3.81,1.14-.34.1-.73,0-1.08.13-.56.13-1.2-.09-1.64.57a.77.77,0,0,1-1.16.16c-.16-.13-.48-.05-.73-.05H584.4c-1.2,1.3-2.92,1.44-4.78,1.06a2.39,2.39,0,0,0-.92,0,14.52,14.52,0,0,1-4.85.55,37.11,37.11,0,0,0-4.35,0c-1.16,0-1.19-.05-1.52-1.48l.76.95.86-.9.68.65.45-.87a2,2,0,0,1,.35,0c.26,0,.56.2.78.13.44-.14.82-.48,1.26-.61a7.05,7.05,0,0,1,1.4-.18l.37.83.18-.85a5.18,5.18,0,0,1,3-.12c.39.11.94-.27,1.49-.44l1,.38-.38-.83,3.77-1,.64.81c.16-.39.25-.6.33-.81.29-.89,1.08-1,1.83-1.21.37-.09.72-.27,1.08-.38s.58-.58,1,0c.18.22.78-.23,1-.65a.61.61,0,0,1,.33-.28,10.61,10.61,0,0,0,1.6-.62,3.45,3.45,0,0,1,3.27-.68c.09,0,.22,0,.37,0l-.53-.48c1.21-1,2.41-1.84,4.13-1.69-.06-.42,1.4-.34.64-1.35.83-.58,1.7-1.16,2.54-1.78a7.26,7.26,0,0,0,1.92-1.87,1.15,1.15,0,0,1,1.61-.47c.25-1.64.69-2,1.62-1.29l.53-.48-.69-.47,3-3.84h1.19a3.67,3.67,0,0,1,0-1.17c.13-.32.48-.56.72-.83l-.36-.16c1.4-.58.79-2.2,1.68-3.11.48.1,1.07.19,1.05-.66a15.73,15.73,0,0,1,.21-1.68,6.53,6.53,0,0,1,.91-1.92l.34,1.17a2,2,0,0,0,.6-.25c.52-.38.5-.83-.07-1.2s-.78-.56-.27-1.17a4.25,4.25,0,0,0,.46-1.41l.25,1.15C617.43,564.53,617.41,564.44,616.63,564Zm-27,31.64.31-.11-.31-.7-.15,0ZM582,597v.32l.66-.06v-.17Zm42.33-53.12c-.17-.09-.3-.22-.4-.21s-.19.21-.2.32.19.23.23.21A1.27,1.27,0,0,0,624.32,543.92ZM625.83,561h.1v-.72h-.1Zm-17,24.19v.1h.52v-.1ZM619.47,557l-.07-.13a2.92,2.92,0,0,0-.31.14s0,.13,0,.2Z" transform="translate(-394.84 -366.06)"/><path class="cls-3" d="M440.4,658h-1.8c1.12-.83.55-2,.65-2.92a3.1,3.1,0,0,0-.22-1.41,1.08,1.08,0,0,0-.76-.59c-.28,0-.85.27-.86.44,0,1.34,0,2.68.08,4,0,.06.29.1.45.16l-.21.37a6,6,0,0,1-1.12,0,3,3,0,0,0-1.89.15c-.83.36-1.81-.44-1.91-1.45-.05-.59,0-1.2,0-1.79s.32-1.44-.31-2c0,0,0-.14,0-.21.22-.9.45-1.8.68-2.69l.29,0v2.33l1.17.32,0,.16-1.12.32c0,1.06,0,2.13,0,3.2.05,1.22.77,1.58,1.84,1l.29-.17.53.41c.1-.09.2-.14.2-.19,0-2,.07-4.07.05-6.1a3.27,3.27,0,0,0-.39-1l1.29-1.41v3.68h.79c1.32,0,1.81.45,1.86,1.75,0,.67,0,1.36,0,2A11,11,0,0,0,440.4,658Z" transform="translate(-394.84 -366.06)"/><path class="cls-3" d="M477.4,637.77c1.22-.83,2.81-.65,3.4-2.16.79,1,.63,1.17-2,2.33a7.88,7.88,0,0,1,1.22,1.63c.71,1.69-.34,3.47-2.34,4.16a3.79,3.79,0,0,1-4.08-1.24,3.14,3.14,0,0,1,0-4.08,8.81,8.81,0,0,1,1.05-1c-.27-1.56.09-2,1.63-2.16a7,7,0,0,0,1.08-.3Zm-1.75-.23c.08-.1,0,0-.06.08-1.42.75-2.09,1.8-1.88,3a3.17,3.17,0,0,0,2.86,2.77,2.75,2.75,0,0,0,2.64-1.5,2.34,2.34,0,0,0-.31-2.87,1.41,1.41,0,0,0-1.92-.37,1.94,1.94,0,0,0-1,2.13c.17.63.68.93,1.61.94-.52.59-.82.67-1.36.38a1.63,1.63,0,0,1-.76-2.33,15.86,15.86,0,0,1,1.66-2.1,5.23,5.23,0,0,1-.15-.77c-.06-.49-.11-1-.7-1.1-.26,0-.76.16-.79.3A6.57,6.57,0,0,0,475.65,637.54Z" transform="translate(-394.84 -366.06)"/><path class="cls-3" d="M484.8,655.15c-.1-.14-.12-.17-.15-.19-.54-.39-1-.8-.75-1.57s.94-.89,1.67-.83c.35,0,.7,0,1.07,0v1.82l-.16,0a3.84,3.84,0,0,0-.48-1,1.58,1.58,0,0,0-.94-.34c-.14,0-.46.34-.43.42a1.84,1.84,0,0,0,.54.82,7.18,7.18,0,0,0,1.09.48c.65.34,1.25.75,1.24,1.6a2,2,0,0,1-1.43,1.74,2.89,2.89,0,0,1-3.09-.75c-.6.65-1.21,1.25-2.16.73a1.68,1.68,0,0,1-1-1.63c0-1,0-1.92,0-2.88,0-.43-.54-.75-.06-1.32.26-.31,0-1,.09-1.52,0-.24.24-.47.6-.68v2.41l1.16.22,0,.18-1.13.34c0,1,0,2.1,0,3.17a1.56,1.56,0,0,0,.61,1.15c.32.15.85-.14,1.28-.25a1.73,1.73,0,0,0,.31-.19C482.75,655.59,483.1,655.24,484.8,655.15Zm.37.05c0,.58.57,1.14-.21,1.43-.1-.06-.21-.08-.22-.13-.12-.42-.31-.77-.82-.63-.19.06-.49.29-.48.41a1.72,1.72,0,0,0,.37,1.05,2.56,2.56,0,0,0,1.3.47,1.52,1.52,0,0,0,1.65-1.08c.13-.82-.45-1.11-1.06-1.37C485.56,655.29,485.41,655.27,485.17,655.2Z" transform="translate(-394.84 -366.06)"/><path class="cls-3" d="M517.84,652.79c-.07.8-.12,1.3-.16,1.79l-.22,0c-.06-.27-.12-.54-.19-.81s-.25-.88-.75-.73-.88.47-.91.76a22,22,0,0,0,0,3.35c0,.26.38.5.65.83h-2c.61-1.12.57-3.52-.09-4.28l1.09-1.37.07.24a10.71,10.71,0,0,1,2.07-.32,10,10,0,0,1,1.9.42l1,3.2.27,0c.2-.55.37-1.11.6-1.65s.32-1.12-.4-1.54h1.86c-1.22,1.45-1.41,3.34-2.23,5-.47.92-.89,1.88-1.44,2.75a7.35,7.35,0,0,1-1.3,1.23c-.45-.53-.57-.85,0-1.1,1.3-.57,1.69-1.82,2.21-3a.9.9,0,0,0,0-.58c-.37-1.1-.74-2.2-1.17-3.27C518.59,653.4,518.25,653.2,517.84,652.79Z" transform="translate(-394.84 -366.06)"/><path class="cls-3" d="M452.89,653.27a8.3,8.3,0,0,1-.87-1.19,1.56,1.56,0,0,1,1.35-2.4c.46,0,.93-.07,1.46-.11v2.89l-.26,0a6.78,6.78,0,0,0-.19-1.51,1.31,1.31,0,0,0-.75-.78,1.15,1.15,0,0,0-1,.43,1.29,1.29,0,0,0,.07,1.08,2.65,2.65,0,0,0,.86.8,11.08,11.08,0,0,0,1.34.77,2.53,2.53,0,0,1,1.59,2.57,2.73,2.73,0,0,1-2,2.27,3.59,3.59,0,0,1-4.09-1.08,2.28,2.28,0,0,1-.23-2.47,2.12,2.12,0,0,1,2.09-1.31Zm.56.25.16.08-.17-.07-.17-.1Zm-.87,1.94.16-.25.61-.86a3.46,3.46,0,0,0-1-.59,1.41,1.41,0,0,0-1.58,1,2,2,0,0,0,.54,2.37,2.6,2.6,0,0,0,3,.54,2,2,0,0,0,1.3-2.06c-.08-.81-.65-1.37-1.68-1.64C453.94,655.42,453.74,655.65,452.58,655.46Z" transform="translate(-394.84 -366.06)"/><path class="cls-3" d="M505.93,650H508c-1.29.32-1.64,1.57-2.43,2.37a.72.72,0,0,0-.09,1c.62,1,1.14,2,1.78,3a13.67,13.67,0,0,0,1.43,1.55h-2c0-1.68-1.35-2.83-2-4.29l-.25.05c0,1.13-.05,2.27,0,3.39,0,.29.53.54.89.87h-2.56a1.57,1.57,0,0,0,.74-1.66c0-1.64,0-3.28,0-4.92a5,5,0,0,0-.44-1.34H505c-.74.79-.44,1.71-.34,2.63C505.11,651.81,506.45,651.4,505.93,650Z" transform="translate(-394.84 -366.06)"/><path class="cls-3" d="M488,625.16l-.87-1.54a11.09,11.09,0,0,0-.27,5c1.67.39,1.82.26,2.38-2.18a10.27,10.27,0,0,1,.19,3.11c-1.38-.64-2.82-.11-4.41-.45a1.25,1.25,0,0,0,.84-1.43c0-1.56,0-3.12,0-4.67a10.78,10.78,0,0,0-.42-1.86c1.15-.3,2.59.32,3.93-.41v2.73a6.08,6.08,0,0,0-.93-1.77c-.3-.27-1-.15-1.45-.2-.41,1.53-.36,1.66.71,1.7l.18-1C488.26,622.21,488.33,623.69,488,625.16Z" transform="translate(-394.84 -366.06)"/><path class="cls-3" d="M457.86,624.08a14.91,14.91,0,0,1,1.87-.32,2.41,2.41,0,0,1,2.4,1.65,2.57,2.57,0,0,1-.37,2.81,3.19,3.19,0,0,1-4.28.72c.3,1.37-.65,2.77,1.19,3.78h-2.25c.36-.58.67-6.3.39-7.4,0-.15-.3-.24-.53-.42a11.73,11.73,0,0,1,1.07-1.25c.32-.28.37,0,.34.29l-.09.4Zm3.79,2.37a1.8,1.8,0,0,0,0-.4,2.37,2.37,0,0,0-2.47-1.81c-1.06.11-1.62.82-1.62,2.07a5.16,5.16,0,0,0,0,1.18,1.71,1.71,0,0,0,.55,1,2.34,2.34,0,0,0,2.48.15A2,2,0,0,0,461.65,626.45Z" transform="translate(-394.84 -366.06)"/><path class="cls-3" d="M448.17,629.21H445.3a5.5,5.5,0,0,0,.47-1.4c.05-1.72,0-3.44,0-5.16,0-.54.14-1.15-.8-1.3,1.56-.51,3.07.21,4.45-.59v2.79a6,6,0,0,0-1-1.78c-.35-.3-1-.19-1.55-.26-.35,1.62-.31,1.72.75,1.69l.17-1h.27a11.15,11.15,0,0,1,0,3c-.52-.51-.26-1.49-1.27-1.42v4.93l1.39.08Z" transform="translate(-394.84 -366.06)"/><path class="cls-3" d="M413.7,653.81l-.71-1.37a11.88,11.88,0,0,0-.24,5.09l1,.2a4.1,4.1,0,0,1-2.64.23c.67-.42.67-1,.66-1.68,0-1.63,0-3.27,0-4.9a4.9,4.9,0,0,0-.48-1.37l3.94-.23v2.39l-.15,0c-.18-.51-.22-1.18-.58-1.49s-1.06-.32-1.74-.48v1.7c.79.14.79.14,1.14-.85v2.7Z" transform="translate(-394.84 -366.06)"/><path class="cls-3" d="M452.89,626.89c-1.25,1.28-1.28,1.36-.77,2.31h-2.07c.49-.5,1-.93,1.41-1.43,1.5-1.73.64-2.68-1.21-3.85h4.68c-.41.44-.83.89-1.24,1.35a.88.88,0,0,0,0,1.28c.68.85,1.33,1.73,2,2.64h-1.86C454.35,628.1,453.4,627.67,452.89,626.89Zm.72-2.63h-1.46l.84,1.15Z" transform="translate(-394.84 -366.06)"/><path class="cls-3" d="M540.33,655.19a2.86,2.86,0,0,0-.47-.33,1.13,1.13,0,0,1-.7-1.47c.19-.63.73-.79,1.32-.84.44,0,.88-.12,1.39-.19v2.51a3.07,3.07,0,0,1,.5.46,1.67,1.67,0,0,1-.54,2.55,2.76,2.76,0,0,1-3,0,1.53,1.53,0,0,1-.77-1.71,1.27,1.27,0,0,1,1.48-.93c.24,0,.48,0,.72,0,.13.49.59,1-.12,1.46-.11-.1-.2-.16-.28-.24a3,3,0,0,0-.67-.67c-.09,0-.55.31-.55.48a1.57,1.57,0,0,0,.32,1,1.89,1.89,0,0,0,2.32.27,1.6,1.6,0,0,0,.65-1c0-.29-.29-.7-.56-.92A4.2,4.2,0,0,0,540.33,655.19Zm1-.58c.32-.76.12-1.25-.39-1.47a1.12,1.12,0,0,0-1,.19c-.33.37-.05.74.37.92S541,654.48,541.36,654.61Z" transform="translate(-394.84 -366.06)"/><path class="cls-3" d="M524.73,655.19c-.55-.47-1.43-.76-1.17-1.72s1.05-.92,1.84-.92a2.79,2.79,0,0,0,.88-.32v2.44a4.8,4.8,0,0,1,.82,1.47c.22,1.32-1.09,2.36-2.62,2.12a2.14,2.14,0,0,1-1.76-1.08,1.27,1.27,0,0,1,1.16-2c.27,0,.55,0,.83,0,.15.48.6,1-.09,1.45a2.67,2.67,0,0,1-.29-.23,3,3,0,0,0-.67-.66c-.07,0-.52.31-.54.51a1.31,1.31,0,0,0,.27,1,1.81,1.81,0,0,0,1.85.52c.59-.18,1.15-.38,1.19-1.13s-.37-1.08-1-1.24Zm1.11-.56c0-1.16-.21-1.63-.81-1.61a1,1,0,0,0-.73.44c-.08.13.09.56.26.67A6.84,6.84,0,0,0,525.84,654.63Z" transform="translate(-394.84 -366.06)"/><path class="cls-3" d="M494.77,629.21H493.3a14.14,14.14,0,0,0,.27-1.58c0-.8,0-1.6,0-2.4,0-.46-.1-.91-.66-1s-1.08.12-1.16.75a17.69,17.69,0,0,0-.13,2.62,7.79,7.79,0,0,0,.41,1.53h-1.46a5.8,5.8,0,0,0-.1-4.4l.91-1.13a5.73,5.73,0,0,0,1.08.13c1.35-.1,1.91.4,1.95,1.77,0,.72,0,1.44,0,2.15A12.35,12.35,0,0,0,494.77,629.21Z" transform="translate(-394.84 -366.06)"/><path class="cls-3" d="M509.43,654.56V652l.58.82a3,3,0,0,1,.88-.31c1,0,1.9.23,2,1.66a17.48,17.48,0,0,1,0,2.4,1.39,1.39,0,0,0,.63,1.43c-.92.09-1.83.24-2.74.25a1.9,1.9,0,0,1-1.67-1.33,1.81,1.81,0,0,1,.87-2.06,13.44,13.44,0,0,1,2.16-.63c-.1-.36,0-1-.73-1.17C510.23,652.65,510,653.77,509.43,654.56Zm2.8,1.69c0-1-.31-1.34-1.2-1.33a1.13,1.13,0,0,0-1.22,1.29,1.3,1.3,0,0,0,1.41,1.41C512,657.6,512.23,657.29,512.23,656.25Z" transform="translate(-394.84 -366.06)"/><path class="cls-3" d="M420.14,654.42h-3.95c-1.1,0-1.41.48-1,1.51a2.49,2.49,0,0,0,4.09,1l.78-.71s.07,0,.1,0a3,3,0,0,1-3.15,2,3,3,0,0,1-2.59-2.74,3.2,3.2,0,0,1,2.5-3A2.67,2.67,0,0,1,420.14,654.42Zm-4.47-.52h3.39A2,2,0,0,0,415.67,653.9Z" transform="translate(-394.84 -366.06)"/><path class="cls-3" d="M481.75,627.36a2.72,2.72,0,0,1-3.13,2.09,2.66,2.66,0,0,1-2.39-2.93,2.89,2.89,0,0,1,2.52-2.76c1.68-.2,2.6.3,3,1.77-.45,0-.86.08-1.27.09h-2.76c-.84,0-1.06.3-.94,1.1a2.37,2.37,0,0,0,1.67,2,2.28,2.28,0,0,0,2.52-.64C481.24,627.83,481.51,627.6,481.75,627.36Zm-.91-2.27a2,2,0,0,0-3.39,0Z" transform="translate(-394.84 -366.06)"/><path class="cls-3" d="M426.33,654.4h-4.59c-.5,1.36-.27,2.18.76,2.87s2.28.41,3.84-1a2.45,2.45,0,0,1-2.62,2.06,2.76,2.76,0,0,1-2.92-2.42,2.94,2.94,0,0,1,2.44-3.3C424.93,652.32,426,652.89,426.33,654.4Zm-.89-.48a2.12,2.12,0,0,0-3.52,0Z" transform="translate(-394.84 -366.06)"/><path class="cls-3" d="M446.77,654.42H443c-1.22,0-1.39.27-1.08,1.45a2.42,2.42,0,0,0,3.83,1.25c.35-.3.67-.64,1.09-1a2.78,2.78,0,0,1-2.87,2.22,2.75,2.75,0,0,1-2.74-2.5,2.93,2.93,0,0,1,2.41-3.22C445.26,652.3,446.32,652.85,446.77,654.42Zm-1.13-.52a1.85,1.85,0,0,0-3.2,0Z" transform="translate(-394.84 -366.06)"/><path class="cls-3" d="M498.79,652.49l1.06.18,0,.19-1.12.32c0,1.27,0,2.57,0,3.87,0,.3.47.57.78.92h-2a10,10,0,0,0,.26-1.71c0-1.1-.22-2.2-.17-3.3a9.75,9.75,0,0,1,.55-2.71,2,2,0,0,1,1.66-1.23l1.22-.19V651l-.25,0c-.06-.39-.12-.77-.19-1.16-1.2-.47-1.78-.18-1.9,1A14.45,14.45,0,0,0,498.79,652.49Z" transform="translate(-394.84 -366.06)"/><path class="cls-3" d="M462.54,656.09a2.31,2.31,0,0,1-2.56,2.2,3,3,0,0,1-2.85-2.59,3.14,3.14,0,0,1,2.32-3.1,2.75,2.75,0,0,1,3.4,1.72c-.42,0-.79.09-1.16.1h-2.88c-.94,0-1.21.37-1,1.27a2.5,2.5,0,0,0,4.06,1.34A5.42,5.42,0,0,0,462.54,656.09Zm-4.18-2.22h3.5C460.59,652.7,459.48,652.72,458.36,653.87Z" transform="translate(-394.84 -366.06)"/><path class="cls-3" d="M474.07,653.52c.15-.21.24-.51.43-.63a2.89,2.89,0,0,1,4.17,1.45h-4.82a2.26,2.26,0,0,0,.79,2.94c1.13.73,2.36.4,3.87-1.07,0,.11.14.24.11.31a3,3,0,0,1-2.77,1.75,2.78,2.78,0,0,1-2.7-1.64,2.31,2.31,0,0,1,.93-3.12c.1.15.2.43.31.43,1,0,2.09,0,3.32,0a2.31,2.31,0,0,0-2.75-.77C474.66,653.29,474.37,653.41,474.07,653.52Z" transform="translate(-394.84 -366.06)"/><path class="cls-3" d="M504.38,623.87H506c-.21.79-.12,1.15.86,3.5.18-1.21,1.42-2.13.33-3.48h1.61c-.54,1.31-1.07,2.64-1.63,4-.47,1.1-.91,2.22-1.47,3.27a2.36,2.36,0,0,1-1.87,1.53l-.25-.22c.17-.24.29-.58.52-.69,1.35-.6,1.67-2,2.26-3.1.08-.15-.07-.45-.15-.67-.33-1-.65-2-1-2.93A6.91,6.91,0,0,0,504.38,623.87Z" transform="translate(-394.84 -366.06)"/><path class="cls-3" d="M504.07,626.41a3.14,3.14,0,0,1-3.16,3.08,2.77,2.77,0,0,1-2.8-2.69,3.13,3.13,0,0,1,3.19-3A2.63,2.63,0,0,1,504.07,626.41Zm-2.93,2.42a2,2,0,0,0,2.23-2.08,2.29,2.29,0,1,0-4.57-.25A2.28,2.28,0,0,0,501.14,628.83Z" transform="translate(-394.84 -366.06)"/><path class="cls-3" d="M531.67,655.54a3,3,0,0,1,3.06-3,2.67,2.67,0,0,1,2.87,2.71,3.29,3.29,0,0,1-3.13,3A2.68,2.68,0,0,1,531.67,655.54Zm2.93,2.09a2.2,2.2,0,0,0,2.32-2.07,2.56,2.56,0,0,0-2.4-2.5,2.28,2.28,0,0,0-2.19,2.22A2.21,2.21,0,0,0,534.6,657.63Z" transform="translate(-394.84 -366.06)"/><path class="cls-3" d="M496.65,655.25a3.07,3.07,0,0,1-3,3,2.7,2.7,0,0,1-2.87-2.74,3.06,3.06,0,0,1,3.09-3A2.57,2.57,0,0,1,496.65,655.25Zm-2.87,2.38a2.05,2.05,0,0,0,2.27-2.22,2.31,2.31,0,0,0-2.27-2.34,2.44,2.44,0,0,0-2.38,2.24A2.31,2.31,0,0,0,493.78,657.63Z" transform="translate(-394.84 -366.06)"/><path class="cls-3" d="M465.65,626.78a3,3,0,0,1,3-3,2.71,2.71,0,0,1,2.91,2.66,3.27,3.27,0,0,1-3.19,3.08A2.69,2.69,0,0,1,465.65,626.78Zm3,2.05a2.2,2.2,0,0,0,2.26-2.14,2.57,2.57,0,0,0-2.36-2.44,2.44,2.44,0,0,0-2.33,2.29A2.34,2.34,0,0,0,468.65,628.83Z" transform="translate(-394.84 -366.06)"/><path class="cls-3" d="M529.23,649.94v2.47l1.41.38-1.39.4c0,1,0,2,0,3.08a1.93,1.93,0,0,0,.53,1.23c.44.39,1,.15,1.37-.26,0,0,.13,0,.26,0,0,.72-.58.9-1.1,1a1.3,1.3,0,0,1-1.5-.73,10.73,10.73,0,0,1-.45-2,14.67,14.67,0,0,0-.25-2.67c-.24-.71.25-1.69.47-2.54C528.64,650.21,528.94,650.13,529.23,649.94Z" transform="translate(-394.84 -366.06)"/><path class="cls-3" d="M428.94,658h-1.72c.63-1.25.37-2.55.33-3.8s.45-2.53-.48-3.76l1.38-1.56c0,2.69,0,5.22,0,7.76A5,5,0,0,0,428.94,658Z" transform="translate(-394.84 -366.06)"/><path class="cls-3" d="M468.57,656.81a2.57,2.57,0,0,1-2.81,1.45,2.83,2.83,0,0,1-2.23-2.1,3,3,0,0,1,3-3.62,14,14,0,0,0,1.48-.22v3l-.24,0a7.54,7.54,0,0,1-.12-.81c-.06-1.21-.69-1.68-1.86-1.33a2.24,2.24,0,0,0-1.5,3,2.47,2.47,0,0,0,3.12,1.28C467.72,657.35,468,657.14,468.57,656.81Z" transform="translate(-394.84 -366.06)"/><path class="cls-2" d="M463.27,621.4l1.12-1.25c0,2.65,0,5.11,0,7.56a8,8,0,0,0,.33,1.47h-1.47c.61-1.2.31-2.49.31-3.74A10,10,0,0,0,463.27,621.4Z" transform="translate(-394.84 -366.06)"/><path class="cls-3" d="M475.44,625.77a4.66,4.66,0,0,1-.12-.65c0-.42-.1-.86-.62-.86s-1.07.23-1.1.86a26.77,26.77,0,0,0,0,3.23c0,.26.38.5.66.83h-2c.73-.69.76-1,.58-4l-.71-.07,1.4-1.65a1.56,1.56,0,0,0,2.17-.15v2.5Z" transform="translate(-394.84 -366.06)"/><path class="cls-3" d="M470.19,652.59l2.26-.1v2h-.2a1.53,1.53,0,0,0-.14-.62,9.59,9.59,0,0,0-.8-.89c-.35.34-.95.64-1,1a12.82,12.82,0,0,0,0,3c0,.3.44.56.79,1l-1.74.09a16.19,16.19,0,0,0,.19-2.31c0-.69.42-1.52-.53-2.07l1.12-1.37Z" transform="translate(-394.84 -366.06)"/><path class="cls-3" d="M495.59,624.93l1.28-1.47c0,2.4,0,4.69,0,7a2.28,2.28,0,0,1-.82,1.9c-.66.55-1.43.44-2.1-.39.34.09.53.16.73.2.73.13,1.38-.2,1.41-.91.09-2,.07-4,.06-6C496.16,625.19,495.89,625.1,495.59,624.93Z" transform="translate(-394.84 -366.06)"/><path class="cls-2" d="M448.17,629.21v-.37c.89-.41,1-1.22,1.12-2.1a8.07,8.07,0,0,1,.18,2.81Z" transform="translate(-394.84 -366.06)"/><path class="cls-3" d="M497,621.75c-.23.14-.42.33-.53.3s-.31-.28-.46-.44c.16-.13.34-.4.48-.38S496.79,621.52,497,621.75Z" transform="translate(-394.84 -366.06)"/><path class="cls-1" d="M486.32,555.11l-.27.44-.16-.16.44-.27Z" transform="translate(-394.84 -366.06)"/><path class="cls-2" d="M581.62,580.31a2.49,2.49,0,0,1,.16.47c0,.06-.06.18-.09.18a1.31,1.31,0,0,1-.28-.09Z" transform="translate(-394.84 -366.06)"/><path class="cls-1" d="M481.87,418.17l.44.22-.2.2-.22-.44Z" transform="translate(-394.84 -366.06)"/><path class="cls-1" d="M562,593.6l.48.24,0,.12-.55-.12Z" transform="translate(-394.84 -366.06)"/><path class="cls-2" d="M415.68,564.52l.67.06a1.85,1.85,0,0,1-.29.13C416,564.72,415.93,564.65,415.68,564.52Z" transform="translate(-394.84 -366.06)"/><path class="cls-1" d="M599,559.57l-.06-.48.16,0,.06.48Z" transform="translate(-394.84 -366.06)"/><path class="cls-2" d="M480,366.06l.14.37-.26-.28Z" transform="translate(-394.84 -366.06)"/><path class="cls-4" d="M453.45,653.52l-.18-.09.17.1Z" transform="translate(-394.84 -366.06)"/></svg>